<svg id="Layer_1" data-name="Layer 1" xmlns="http://www.w3.org/2000/svg" viewBox="0 0 1455.62 410.11"><defs><style>.cls-1,.cls-2{font-size:19.37px;font-family:Georgia-Bold, Georgia;font-weight:700;}.cls-2{fill:none;}</style></defs><text class="cls-1" transform="translate(15.66 178.3) rotate(-71.84)">t</text><text class="cls-1" transform="translate(18.33 170.32) rotate(-67.22)">i</text><text class="cls-1" transform="translate(21.03 163.3) rotate(-61.34)">m</text><text class="cls-1" transform="translate(31.01 145.48) rotate(-57.8)">e</text><text class="cls-1" transform="matrix(0.55, -0.84, 0.84, 0.55, 37.44, 135.34)">t</text><text class="cls-1" transform="translate(42.06 128.26) rotate(-53.14)">r</text><text class="cls-1" transform="matrix(0.66, -0.75, 0.75, 0.66, 48.56, 119.6)">a</text><text class="cls-1" transform="translate(56.67 110.36) rotate(-44.95)">v</text><text class="cls-1" transform="translate(65 102.09) rotate(-41.47)">e</text><text class="cls-1" transform="matrix(0.78, -0.63, 0.63, 0.78, 73.97, 94.26)">l</text><text class="cls-1" transform="translate(79.84 89.54) rotate(-36.87)">t</text><text class="cls-1" transform="translate(86.69 84.43) rotate(-35)">i</text><text class="cls-1" transform="matrix(0.85, -0.53, 0.53, 0.85, 92.9, 79.91)">m</text><text class="cls-1" transform="translate(110.33 69.18) rotate(-28.98)">e</text><text class="cls-1" transform="translate(120.79 63.43) rotate(-27.22)">t</text><text class="cls-1" transform="translate(128.43 59.5) rotate(-25.63)">r</text><text class="cls-1" transform="translate(138.28 54.77) rotate(-23.85)">a</text><text class="cls-1" transform="translate(149.64 49.77) rotate(-22.1)">v</text><text class="cls-1" transform="translate(160.65 45.32) rotate(-20.45)">e</text><text class="cls-1" transform="translate(171.86 41.18) rotate(-19.13)">l</text><text class="cls-1" transform="translate(179.02 38.7) rotate(-18.05)">t</text><text class="cls-1" transform="matrix(0.96, -0.29, 0.29, 0.96, 187.21, 36.04)">i</text><text class="cls-1" transform="translate(194.56 33.7) rotate(-15.01)">m</text><text class="cls-1" transform="translate(214.39 28.49) rotate(-12.6)">e</text><text class="cls-1" transform="matrix(0.99, -0.17, 0.17, 0.99, 226, 25.87)">t</text><text class="cls-1" transform="translate(234.34 24.4) rotate(-6.59)">r</text><text class="cls-1" transform="matrix(1, -0.05, 0.05, 1, 245.13, 23.16)">a</text><text class="cls-1" transform="translate(257.44 22.58) rotate(0.35)">v</text><text class="cls-1" transform="translate(269.23 22.67) rotate(3.12)">e</text><text class="cls-1" transform="translate(281.14 23.38) rotate(5.14)">l</text><text class="cls-1" transform="matrix(0.99, 0.12, -0.12, 0.99, 288.66, 24.06)">t</text><text class="cls-1" transform="translate(297.19 25.08) rotate(8.12)">i</text><text class="cls-1" transform="matrix(0.98, 0.18, -0.18, 0.98, 304.84, 26.06)">m</text><text class="cls-1" transform="translate(324.97 29.87) rotate(12.72)">e</text><text class="cls-1" transform="translate(336.66 32.54) rotate(14.09)">t</text><text class="cls-1" transform="translate(344.98 34.63) rotate(15.31)">r</text><text class="cls-1" transform="translate(355.56 37.53) rotate(16.71)">a</text><text class="cls-1" transform="matrix(0.95, 0.31, -0.31, 0.95, 367.47, 41.12)">v</text><text class="cls-1" transform="translate(378.75 44.81) rotate(19.39)">e</text><text class="cls-1" transform="translate(390.05 48.82) rotate(20.43)">l</text><text class="cls-1" transform="translate(397.16 51.47) rotate(21.28)">t</text><text class="cls-1" transform="translate(405.2 54.61) rotate(22.12)">i</text><text class="cls-1" transform="matrix(0.92, 0.4, -0.4, 0.92, 412.38, 57.46)">m</text><text class="cls-1" transform="matrix(0.9, 0.43, -0.43, 0.9, 431.2, 65.75)">e</text><text class="cls-1" transform="matrix(0.9, 0.44, -0.44, 0.9, 442.04, 70.87)">t</text><text class="cls-1" transform="matrix(0.89, 0.46, -0.46, 0.89, 449.75, 74.66)">r</text><text class="cls-1" transform="translate(459.51 79.69) rotate(28.44)">a</text><text class="cls-1" transform="matrix(0.87, 0.5, -0.5, 0.87, 470.43, 85.62)">v</text><text class="cls-2" transform="matrix(0.86, 0.52, -0.52, 0.86, 480.76, 91.53)">e</text><text class="cls-1" transform="translate(491 97.72) rotate(32.14)">l</text><text class="cls-1" transform="translate(497.42 101.76) rotate(33.08)">t</text><text class="cls-1" transform="matrix(0.83, 0.56, -0.56, 0.83, 504.64, 106.47)">i</text><text class="cls-1" transform="translate(511.08 110.72) rotate(35.88)">m</text><text class="cls-1" transform="translate(527.64 122.82) rotate(38.13)">e</text><text class="cls-1" transform="translate(537.04 130.24) rotate(39.69)">t</text><text class="cls-1" transform="translate(543.65 135.71) rotate(41.28)">r</text><text class="cls-1" transform="matrix(0.73, 0.69, -0.69, 0.73, 551.86, 142.92)">a</text><text class="cls-1" transform="matrix(0.7, 0.72, -0.72, 0.7, 560.85, 151.43)">v</text><text class="cls-1" transform="matrix(0.66, 0.75, -0.75, 0.66, 569.06, 159.87)">e</text><text class="cls-1" transform="translate(576.94 168.82) rotate(50.73)">l</text><text class="cls-1" transform="matrix(0.6, 0.8, -0.8, 0.6, 581.69, 174.63)">t</text><text class="cls-1" transform="matrix(0.57, 0.82, -0.82, 0.57, 586.82, 181.45)">i</text><text class="cls-1" transform="matrix(0.5, 0.87, -0.87, 0.5, 591.33, 187.53)">m</text><text class="cls-1" transform="translate(601.18 205.25) rotate(66.98)">e</text><text class="cls-1" transform="translate(605.7 216.12) rotate(72.08)">t</text><text class="cls-1" transform="translate(608.31 224.08) rotate(77.58)">r</text><text class="cls-1" transform="translate(610.62 234.47) rotate(84.96)">a</text><text class="cls-1" transform="translate(611.63 246.48) rotate(93.39)">v</text><text class="cls-1" transform="translate(610.67 257.84) rotate(99.28)">e</text><text class="cls-1" transform="matrix(-0.28, 0.96, -0.96, -0.28, 608.35, 269.47)">l</text><text class="cls-1" transform="translate(606.26 276.63) rotate(109.41)">t</text><text class="cls-1" transform="matrix(-0.38, 0.92, -0.92, -0.38, 603.41, 284.62)">i</text><text class="cls-1" transform="translate(600.74 291.69) rotate(117.47)">m</text><text class="cls-1" transform="matrix(-0.54, 0.84, -0.84, -0.54, 591.14, 309.64)">e</text><text class="cls-1" transform="matrix(-0.59, 0.81, -0.81, -0.59, 584.65, 319.59)">t</text><text class="cls-1" transform="matrix(-0.63, 0.78, -0.78, -0.63, 579.67, 326.49)">r</text><text class="cls-1" transform="translate(572.85 334.93) rotate(132.31)">a</text><text class="cls-1" transform="translate(564.54 344.02) rotate(135.86)">v</text><text class="cls-1" transform="translate(556.1 352.17) rotate(139.36)">e</text><text class="cls-1" transform="matrix(-0.79, 0.61, -0.61, -0.79, 547.02, 359.87)">l</text><text class="cls-1" transform="translate(541.1 364.44) rotate(144.81)">t</text><text class="cls-1" transform="translate(534.12 369.33) rotate(147.42)">i</text><text class="cls-1" transform="translate(527.87 373.61) rotate(152.2)">m</text><text class="cls-1" transform="translate(509.78 382.87) rotate(158.26)">e</text><text class="cls-1" transform="translate(498.79 387.16) rotate(162.5)">t</text><text class="cls-1" transform="matrix(-0.97, 0.23, -0.23, -0.97, 490.75, 389.72)">r</text><text class="cls-1" transform="translate(480.3 392.17) rotate(172.69)">a</text><text class="cls-1" transform="matrix(-1, 0.01, -0.01, -1, 468.26, 393.67)">v</text><text class="cls-1" transform="translate(456.71 393.78) rotate(-173.48)">e</text><text class="cls-1" transform="translate(445.1 392.3) rotate(-167.18)">l</text><text class="cls-1" transform="matrix(-0.95, -0.31, 0.31, -0.95, 437.95, 390.67)">t</text><text class="cls-1" transform="matrix(-0.92, -0.4, 0.4, -0.92, 430.02, 388)">i</text><text class="cls-1" transform="translate(423.09 385.47) rotate(-146.78)">m</text><text class="cls-1" transform="matrix(-0.73, -0.69, 0.69, -0.73, 406.53, 374.1)">e</text><text class="cls-1" transform="matrix(-0.66, -0.75, 0.75, -0.66, 398.09, 365.98)">t</text><text class="cls-1" transform="matrix(-0.59, -0.81, 0.81, -0.59, 392.56, 359.64)">r</text><text class="cls-1" transform="matrix(-0.51, -0.86, 0.86, -0.51, 386.23, 350.95)">a</text><text class="cls-1" transform="translate(379.98 340.4) rotate(-116.23)">v</text><text class="cls-1" transform="translate(374.85 329.82) rotate(-112.81)">e</text><text class="cls-1" transform="matrix(-0.36, -0.93, 0.93, -0.36, 370.26, 318.8)">l</text><text class="cls-1" transform="matrix(-0.33, -0.94, 0.94, -0.33, 367.56, 311.78)">t</text><text class="cls-1" transform="translate(364.79 303.7) rotate(-106.8)">i</text><text class="cls-1" transform="translate(362.33 296.55) rotate(-101.72)">m</text><text class="cls-1" transform="translate(358.5 276.68) rotate(-93.96)">e</text><text class="cls-1" transform="translate(357.8 264.99) rotate(-88.15)">t</text><text class="cls-1" transform="translate(358.04 256.64) rotate(-82.25)">r</text><text class="cls-1" transform="translate(359.48 246.06) rotate(-75.27)">a</text><text class="cls-1" transform="translate(362.63 234.34) rotate(-68.68)">v</text><text class="cls-1" transform="matrix(0.45, -0.89, 0.89, 0.45, 366.91, 223.5)">e</text><text class="cls-1" transform="matrix(0.51, -0.86, 0.86, 0.51, 372.35, 212.99)">l</text><text class="cls-1" transform="matrix(0.55, -0.84, 0.84, 0.55, 376.17, 206.53)">t</text><text class="cls-1" transform="matrix(0.58, -0.81, 0.81, 0.58, 380.87, 199.41)">i</text><text class="cls-1" transform="matrix(0.62, -0.78, 0.78, 0.62, 385.2, 193.09)">m</text><text class="cls-1" transform="translate(398.06 177.14) rotate(-48.85)">e</text><text class="cls-1" transform="translate(405.96 168.16) rotate(-47.57)">t</text><text class="cls-1" transform="matrix(0.69, -0.73, 0.73, 0.69, 411.78, 161.79)">r</text><text class="cls-1" transform="matrix(0.7, -0.71, 0.71, 0.7, 419.33, 153.82)">a</text><text class="cls-1" transform="matrix(0.71, -0.7, 0.7, 0.71, 428.07, 144.92)">v</text><text class="cls-1" transform="translate(436.53 136.54) rotate(-44.08)">e</text><text class="cls-1" transform="translate(445.18 128.2) rotate(-43.72)">l</text><text class="cls-1" transform="matrix(0.74, -0.67, 0.67, 0.74, 450.65, 122.96)">t</text><text class="cls-1" transform="translate(456.98 117.2) rotate(-40.76)">i</text><text class="cls-1" transform="matrix(0.79, -0.61, 0.61, 0.79, 462.69, 112.08)">m</text><text class="cls-1" transform="translate(478.95 99.69) rotate(-34.01)">e</text><text class="cls-1" transform="translate(488.83 93.09) rotate(-31.47)">t</text><text class="cls-1" transform="matrix(0.88, -0.48, 0.48, 0.88, 496.1, 88.63)">r</text><text class="cls-1" transform="translate(505.62 83.37) rotate(-25.76)">a</text><text class="cls-1" transform="matrix(0.93, -0.38, 0.38, 0.93, 516.72, 78.04)">v</text><text class="cls-1" transform="translate(527.62 73.59) rotate(-18.82)">e</text><text class="cls-1" transform="translate(538.88 69.84) rotate(-15.89)">l</text><text class="cls-1" transform="matrix(0.97, -0.23, 0.23, 0.97, 546.09, 67.79)">t</text><text class="cls-1" transform="translate(554.4 65.83) rotate(-10.93)">i</text><text class="cls-1" transform="translate(561.8 64.19) rotate(-6.64)">m</text><text class="cls-1" transform="translate(582.07 62.05) rotate(-1.8)">e</text><text class="cls-1" transform="matrix(1, 0.02, -0.02, 1, 593.95, 61.74)">t</text><text class="cls-1" transform="translate(602.47 61.91) rotate(3.91)">r</text><text class="cls-1" transform="translate(613.3 62.65) rotate(7.03)">a</text><text class="cls-1" transform="translate(625.56 64.2) rotate(10.08)">v</text><text class="cls-1" transform="translate(637.15 66.28) rotate(12.86)">e</text><text class="cls-1" transform="matrix(0.97, 0.26, -0.26, 0.97, 648.76, 68.99)">l</text><text class="cls-1" transform="translate(656.05 70.95) rotate(16.61)">t</text><text class="cls-1" transform="translate(664.28 73.42) rotate(18.13)">i</text><text class="cls-1" transform="translate(671.62 75.72) rotate(20.41)">m</text><text class="cls-1" transform="translate(690.84 82.99) rotate(22.27)">e</text><text class="cls-1" transform="translate(701.92 87.55) rotate(22.69)">t</text><text class="cls-1" transform="translate(709.88 90.86) rotate(24.06)">r</text><text class="cls-1" transform="translate(719.88 95.33) rotate(25.89)">a</text><text class="cls-1" transform="translate(731 100.75) rotate(27.78)">v</text><text class="cls-1" transform="translate(741.5 106.29) rotate(29.64)">e</text><text class="cls-1" transform="matrix(0.86, 0.52, -0.52, 0.86, 751.85, 112.23)">l</text><text class="cls-1" transform="matrix(0.84, 0.54, -0.54, 0.84, 758.34, 116.15)">t</text><text class="cls-1" transform="matrix(0.83, 0.55, -0.55, 0.83, 765.61, 120.77)">i</text><text class="cls-1" transform="matrix(0.81, 0.58, -0.58, 0.81, 772.08, 124.95)">m</text><text class="cls-1" transform="translate(788.72 136.97) rotate(37.69)">e</text><text class="cls-1" transform="translate(798.17 144.31) rotate(38.92)">t</text><text class="cls-1" transform="matrix(0.77, 0.64, -0.64, 0.77, 804.87, 149.72)">r</text><text class="cls-1" transform="matrix(0.75, 0.66, -0.66, 0.75, 813.28, 156.78)">a</text><text class="cls-1" transform="translate(822.63 164.97) rotate(42.14)">v</text><text class="cls-1" transform="matrix(0.73, 0.68, -0.68, 0.73, 831.48, 172.98)">e</text><text class="cls-1" transform="translate(840.26 181.17) rotate(43.34)">l</text><text class="cls-1" transform="matrix(0.72, 0.69, -0.69, 0.72, 845.81, 186.41)">t</text><text class="cls-1" transform="translate(852.09 192.39) rotate(43.65)">i</text><text class="cls-1" transform="matrix(0.73, 0.69, -0.69, 0.73, 857.71, 197.78)">m</text><text class="cls-1" transform="translate(872.69 211.91) rotate(42.42)">e</text><text class="cls-1" transform="translate(881.55 219.98) rotate(41.33)">t</text><text class="cls-1" transform="translate(888.01 225.68) rotate(39.91)">r</text><text class="cls-1" transform="matrix(0.79, 0.61, -0.61, 0.79, 896.64, 232.9)">a</text><text class="cls-1" transform="matrix(0.83, 0.56, -0.56, 0.83, 906.93, 240.78)">v</text><text class="cls-1" transform="translate(917.33 247.82) rotate(30.17)">e</text><text class="cls-1" transform="translate(928.28 254.05) rotate(26.06)">l</text><text class="cls-1" transform="translate(935.66 257.62) rotate(22.18)">t</text><text class="cls-1" transform="matrix(0.95, 0.31, -0.31, 0.95, 944.28, 261.06)">i</text><text class="cls-1" transform="translate(952.72 264.1) rotate(10.04)">m</text><text class="cls-1" transform="translate(974.36 267.4) rotate(1.15)">e</text><text class="cls-1" transform="translate(987.14 267.5) rotate(-3.97)">t</text><text class="cls-1" transform="matrix(0.99, -0.14, 0.14, 0.99, 996.42, 266.83)">r</text><text class="cls-1" transform="translate(1007.96 265.1) rotate(-12.85)">a</text><text class="cls-1" transform="translate(1020.69 262.12) rotate(-16.82)">v</text><text class="cls-1" transform="translate(1032.56 258.47) rotate(-20.1)">e</text><text class="cls-1" transform="translate(1044.12 254.16) rotate(-22.29)">l</text><text class="cls-1" transform="translate(1051.49 251.14) rotate(-24.65)">t</text><text class="cls-1" transform="translate(1059.73 247.32) rotate(-27.49)">i</text><text class="cls-1" transform="matrix(0.83, -0.55, 0.55, 0.83, 1067.57, 243.55)">m</text><text class="cls-1" transform="matrix(0.74, -0.68, 0.68, 0.74, 1085.56, 231.04)">e</text><text class="cls-1" transform="matrix(0.65, -0.76, 0.76, 0.65, 1095.02, 222.07)">t</text><text class="cls-1" transform="matrix(0.55, -0.84, 0.84, 0.55, 1101.28, 214.67)">r</text><text class="cls-1" transform="matrix(0.41, -0.91, 0.91, 0.41, 1107.95, 204.32)">a</text><text class="cls-1" transform="translate(1113.45 191.69) rotate(-74.37)">v</text><text class="cls-1" transform="matrix(0.14, -0.99, 0.99, 0.14, 1116.8, 179.13)">e</text><text class="cls-1" transform="translate(1118.44 166.45) rotate(-86.88)">l</text><text class="cls-1" transform="translate(1118.84 158.34) rotate(-90.34)">t</text><text class="cls-1" transform="matrix(-0.06, -1, 1, -0.06, 1118.74, 149.25)">i</text><text class="cls-1" transform="translate(1118.39 140.93) rotate(-96.95)">m</text><text class="cls-1" transform="translate(1115.74 120.46) rotate(-99.4)">e</text><text class="cls-1" transform="translate(1113.75 108.61) rotate(-100.07)">t</text><text class="cls-1" transform="translate(1112.23 100.08) rotate(-100.02)">r</text><text class="cls-1" transform="translate(1110.3 89.27) rotate(-98.92)">a</text><text class="cls-1" transform="matrix(-0.11, -0.99, 0.99, -0.11, 1108.38, 77.06)">v</text><text class="cls-1" transform="translate(1107.1 65.46) rotate(-91.25)">e</text><text class="cls-1" transform="translate(1106.96 53.78) rotate(-84.56)">l</text><text class="cls-1" transform="translate(1107.62 46.61) rotate(-76.5)">t</text><text class="cls-1" transform="matrix(0.41, -0.91, 0.91, 0.41, 1109.54, 38.78)">i</text><text class="cls-1" transform="matrix(0.71, -0.7, 0.7, 0.71, 1111.48, 31.99)">m</text><text class="cls-1" transform="translate(1125.94 19.51) rotate(-16.11)">e</text><text class="cls-1" transform="translate(1136.91 16.65) rotate(-2.97)">t</text><text class="cls-1" transform="translate(1145.08 16.22) rotate(5.61)">r</text><text class="cls-1" transform="translate(1155.71 17.31) rotate(12.32)">a</text><text class="cls-1" transform="matrix(0.96, 0.29, -0.29, 0.96, 1167.69, 20)">v</text><text class="cls-1" transform="translate(1178.97 23.44) rotate(19.54)">e</text><text class="cls-1" transform="matrix(0.93, 0.36, -0.36, 0.93, 1190.21, 27.48)">l</text><text class="cls-1" transform="translate(1197.28 30.21) rotate(22.02)">t</text><text class="cls-1" transform="translate(1205.29 33.46) rotate(22.71)">i</text><text class="cls-1" transform="matrix(0.92, 0.4, -0.4, 0.92, 1212.47, 36.44)">m</text><text class="cls-1" transform="matrix(0.92, 0.4, -0.4, 0.92, 1231.37, 44.66)">e</text><text class="cls-1" transform="translate(1242.4 49.51) rotate(23.67)">t</text><text class="cls-1" transform="matrix(0.92, 0.4, -0.4, 0.92, 1250.33, 52.99)">r</text><text class="cls-1" transform="matrix(0.92, 0.39, -0.39, 0.92, 1260.43, 57.38)">a</text><text class="cls-1" transform="translate(1271.93 62.28) rotate(22.53)">v</text><text class="cls-1" transform="translate(1282.92 66.83) rotate(21.83)">e</text><text class="cls-1" transform="translate(1294.08 71.29) rotate(21.16)">l</text><text class="cls-1" transform="translate(1301.19 74.03) rotate(20.53)">t</text><text class="cls-1" transform="matrix(0.94, 0.34, -0.34, 0.94, 1309.27, 77.05)">i</text><text class="cls-1" transform="translate(1316.52 79.74) rotate(18.52)">m</text><text class="cls-1" transform="matrix(0.96, 0.29, -0.29, 0.96, 1336.05, 86.2)">e</text><text class="cls-1" transform="matrix(0.96, 0.27, -0.27, 0.96, 1347.51, 89.63)">t</text><text class="cls-1" transform="translate(1355.79 91.95) rotate(14.34)">r</text><text class="cls-1" transform="translate(1366.42 94.67) rotate(12.76)">a</text><text class="cls-1" transform="matrix(0.98, 0.19, -0.19, 0.98, 1378.53, 97.39)">v</text><text class="cls-1" transform="translate(1390.17 99.64) rotate(9.14)">e</text><text class="cls-1" transform="matrix(0.99, 0.13, -0.13, 0.99, 1401.99, 101.5)">l</text><text class="cls-1" transform="translate(1409.49 102.49) rotate(6.15)">t</text><text class="cls-1" transform="translate(1418.17 103.41) rotate(4.67)">i</text><text class="cls-1" transform="translate(1426.34 104.2) rotate(1.95)">m</text></svg>