<svg id="Layer_1" data-name="Layer 1" xmlns="http://www.w3.org/2000/svg" viewBox="0 0 500 500"><path d="M235.82,136.44c50.91-7.16,104.18,24,121.74,72.58l8.76,30.81c23.15,1.81,41.2-10,44.52-35.26,4.82-4.16,3.32,47.05,4.68,47.22l-118.15,1.33L154.27,256l109.46-9.09c26.66-2.82,57.15-4.64,83.44-5.89L343,215.94c-26.12-68.81-113.78-81.41-166.27-34.46-8.3,9.36-22.86,32.1-29.39,42.91C146.89,177.24,192.26,142.6,235.82,136.44Z"/><path d="M265.92,360.75c-50.91,7.16-104.19-24-121.74-72.58l-8.76-30.81c-23.16-1.81-41.21,10-44.52,35.26-4.84,4.16-3-46.25-4.37-46.42l116-3.21c87-2.22,260.22-6.39,40.61,8.49-27.9,1.89-61.18,3.18-88.6,4.69l4.21,25.08c27.87,76.07,136.14,83.43,179.25,17.62l16.41-26.07L351,298.07C337.36,331.83,301.27,355.75,265.92,360.75Z"/></svg>